#!OML:ASF X:\für Bonn\!DataBase\2005_08_12_Daniel\c3d\Daniel.ASF
:FULLY-SPECIFIED
:DEGREES
18
root -3.95568 17.155 0.691067 5.79448 -78.4239 -22.3759
lowerback 27.6192 -11.1684 -0.404604
upperback 8.8537 -15.2719 -0.295805
thorax -4.86917 -7.80725 4.57808
lowerneck 3.05005 9.17171 -1.47563
upperneck 11.7127 12.1194 -2.5427
head 3.34101 5.69265 -0.34388
rclavicle -5.85421e-014 -1.98785e-014
rhumerus -52.1502 20.6892 -81.8834
rradius 52.2291
rwrist 13.1966
rhand -29.2016 38.6308
rfingers 7.12502
rthumb -2.54638 8.66624
lclavicle -5.85421e-014 -1.98785e-014
lhumerus 11.9077 -1.06979 74.0332
lradius 94.6039
lwrist 31.3268
lhand -17.4206 -10.6087
lfingers 7.12502
lthumb 8.82952 19.1866
rfemur -26.1007 -4.75668 18.676
rtibia 68.0865
rfoot -0.423119 -7.21638
rtoes -2.47495
lfemur -4.07896 -12.7868 -20.2082
ltibia 38.2568
lfoot -20.7104 2.40437
ltoes 4.09828
19
root -3.93541 17.164 0.717217 6.4482 -78.4339 -23.5589
lowerback 28.2794 -11.4968 -0.691816
upperback 9.13947 -15.8044 -0.303613
thorax -4.74508 -8.09992 4.95406
lowerneck 3.29418 9.4916 -1.722
upperneck 11.3206 12.5278 -2.59383
head 3.1523 5.89688 -0.337398
rclavicle 1.01579e-013 -4.29375e-014
rhumerus -52.4261 20.2803 -81.6143
rradius 50.7653
rwrist 14.005
rhand -29.2484 38.7064
rfingers 7.12502
rthumb -2.59161 8.74237
lclavicle 1.01579e-013 -4.29375e-014
lhumerus 13.5903 -0.486802 73.7567
lradius 95.5876
lwrist 31.7901
lhand -17.2847 -10.8175
lfingers 7.12502
lthumb 8.96059 18.9722
rfemur -28.1858 -4.96175 18.7743
rtibia 70.9713
rfoot -0.423201 -6.10354
rtoes -3.23559
lfemur -3.26619 -12.939 -20.2377
ltibia 37.7777
lfoot -20.5892 2.6347
ltoes 4.27877
20
root -3.91477 17.1739 0.744251 7.36772 -78.4239 -25.0259
lowerback 29.0002 -11.8392 -0.897056
upperback 9.42446 -16.3362 -0.329754
thorax -4.66506 -8.39097 5.28624
lowerneck 3.42201 9.79714 -1.88622
upperneck 11.0349 12.9229 -2.63499
head 3.02685 6.09462 -0.33334
rclavicle -1.80695e-013 8.07066e-014
rhumerus -52.7017 19.8665 -81.3848
rradius 49.315
rwrist 14.6986
rhand -29.2632 38.7474
rfingers 7.12502
rthumb -2.6059 8.78362
lclavicle -1.80695e-013 8.07066e-014
lhumerus 15.2556 0.0699511 73.4707
lradius 96.5432
lwrist 32.2113
lhand -17.155 -11.0727
lfingers 7.12502
lthumb 9.08578 18.7116
rfemur -30.2648 -5.20058 18.9474
rtibia 73.7751
rfoot -0.568085 -4.94377
rtoes -4.17625
lfemur -2.40078 -13.1405 -20.221
ltibia 37.2513
lfoot -20.4597 2.88976
ltoes 4.47419
21
root -3.8933 17.1942 0.771284 8.63866 -78.3925 -26.8903
lowerback 29.7988 -12.1848 -1.03433
upperback 9.70256 -16.8551 -0.343259
thorax -4.63215 -8.6747 5.61609
lowerneck 3.60701 10.0899 -1.98511
upperneck 10.7357 13.3012 -2.73673
head 2.89664 6.28583 -0.362877
rclavicle 2.64384e-014 -2.78299e-014
rhumerus -53.008 19.4213 -81.1415
rradius 47.8832
rwrist 15.2607
rhand -29.333 38.6927
rfingers 7.12502
rthumb -2.67334 8.72971
lclavicle 2.64384e-014 -2.78299e-014
lhumerus 16.8615 0.58224 73.1956
lradius 97.4986
lwrist 32.5932
lhand -17.0762 -11.3484
lfingers 7.12502
lthumb 9.16182 18.4326
rfemur -32.3046 -5.43758 19.238
rtibia 76.466
rfoot -0.741254 -3.86205
rtoes -4.97744
lfemur -1.43283 -13.3603 -20.1299
ltibia 36.6301
lfoot -20.3361 3.17572
ltoes 4.66598
22
root -3.87123 17.224 0.799269 10.1183 -78.3414 -28.9801
lowerback 30.6338 -12.5388 -1.12712
upperback 9.98097 -17.3741 -0.353495
thorax -4.6153 -8.95912 5.94024
lowerneck 3.82931 10.3812 -2.12231
upperneck 10.3904 13.6709 -2.81779
head 2.74062 6.47462 -0.385182
rclavicle 7.5737e-014 -8.74653e-014
rhumerus -53.2605 18.9806 -80.8734
rradius 46.4092
rwrist 15.7922
rhand -29.3717 38.7198
rfingers 7.12502
rthumb -2.71067 8.7573
lclavicle 7.5737e-014 -8.74653e-014
lhumerus 18.4444 1.0955 72.8982
lradius 98.4845
lwrist 33.0275
lhand -16.9619 -11.7418
lfingers 7.12502
lthumb 9.27206 18.0343
rfemur -34.3504 -5.68408 19.6055
rtibia 79.0657
rfoot -0.986045 -2.93556
rtoes -5.57832
lfemur -0.405168 -13.5833 -19.9953
ltibia 35.9431
lfoot -20.1771 3.45492
ltoes 4.85552
23
root -3.84724 17.2529 0.827047 11.6254 -78.271 -31.1215
lowerback 31.5358 -12.897 -1.20262
upperback 10.2585 -17.8954 -0.382523
thorax -4.62908 -9.24365 6.2576
lowerneck 4.05114 10.6664 -2.17225
upperneck 10.0529 14.0366 -2.94874
head 2.59931 6.66355 -0.436554
rclavicle -1.88845e-014 3.73715e-014
rhumerus -53.5496 18.5558 -80.6398
rradius 44.9957
rwrist 16.224
rhand -29.4059 38.6353
rfingers 7.12502
rthumb -2.74374 8.67324
lclavicle -1.88845e-014 3.73715e-014
lhumerus 20.0499 1.60384 72.6214
lradius 99.4439
lwrist 33.4582
lhand -16.779 -12.1291
lfingers 7.12502
lthumb 9.44862 17.6391
rfemur -36.4449 -5.98471 20.0091
rtibia 81.6079
rfoot -1.26324 -2.136
rtoes -6.16009
lfemur 0.65644 -13.7754 -19.8395
ltibia 35.224
lfoot -19.9929 3.72209
ltoes 5.03784
24
root -3.82413 17.2746 0.854192 13.4234 -78.1886 -33.5761
lowerback 32.4677 -13.2442 -1.22802
upperback 10.544 -18.3895 -0.402225
thorax -4.64879 -9.51648 6.56327
lowerneck 4.29974 10.944 -2.25358
upperneck 9.65875 14.3874 -3.0709
head 2.43254 6.84745 -0.485215
rclavicle -1.51076e-014 4.77083e-015
rhumerus -53.8085 18.1235 -80.3732
rradius 43.5555
rwrist 16.6966
rhand -29.5349 38.6317
rfingers 7.12502
rthumb -2.86829 8.67125
lclavicle -1.51076e-014 4.77083e-015
lhumerus 21.7084 2.10455 72.4548
lradius 100.383
lwrist 33.8648
lhand -16.4932 -12.4935
lfingers 7.12502
lthumb 9.72429 17.262
rfemur -38.5616 -6.33072 20.5109
rtibia 84.1032
rfoot -1.56023 -1.3657
rtoes -6.49677
lfemur 1.70847 -13.9328 -19.608
ltibia 34.5575
lfoot -19.8274 3.93705
ltoes 5.23516
25
root -3.79907 17.292 0.881192 15.0867 -78.0744 -35.9089
lowerback 33.8026 -13.5959 -1.22584
upperback 10.3966 -18.8958 -0.15663
thorax -4.71789 -9.80083 6.692
lowerneck 4.50636 11.2047 -2.29857
upperneck 9.3352 14.7186 -3.19151
head 2.30055 7.02026 -0.535105
rclavicle -4.69132e-014 5.1684e-014
rhumerus -54.1154 17.7313 -80.1222
rradius 42.1551
rwrist 17.2341
rhand -29.737 38.5696
rfingers 7.12502
rthumb -3.06343 8.61182
lclavicle -4.69132e-014 5.1684e-014
lhumerus 23.3712 2.53942 72.286
lradius 101.316
lwrist 34.372
lhand -16.1591 -12.8167
lfingers 7.12502
lthumb 10.0467 16.9235
rfemur -40.7067 -6.74583 21.0273
rtibia 86.5441
rfoot -1.85099 -0.607359
rtoes -6.84464
lfemur 2.70455 -14.0478 -19.3724
ltibia 33.9878
lfoot -19.6815 4.09774
ltoes 5.37767
26
root -3.77559 17.3038 0.906788 16.6535 -77.9563 -38.1498
lowerback 34.8443 -13.9252 -1.25423
upperback 10.6206 -19.3686 -0.178545
thorax -4.78879 -10.0603 6.97724
lowerneck 4.7561 11.4551 -2.38047
upperneck 8.95598 15.0289 -3.28941
head 2.13896 7.18514 -0.578452
rclavicle -6.32135e-014 2.14687e-014
rhumerus -54.4589 17.2654 -79.8128
rradius 40.8132
rwrist 17.9648
rhand -29.9921 38.3784
rfingers 7.12502
rthumb -3.30982 8.42439
lclavicle -6.32135e-014 2.14687e-014
lhumerus 25.0177 2.93231 72.1231
lradius 102.286
lwrist 34.9765
lhand -15.7901 -13.0039
lfingers 7.12502
lthumb 10.4026 16.7187
rfemur -42.8946 -7.20412 21.5846
rtibia 88.9552
rfoot -2.16519 0.125519
rtoes -7.6038
lfemur 3.65036 -14.1446 -19.141
ltibia 33.5279
lfoot -19.5937 4.2031
ltoes 5.56103
27
root -3.75173 17.3112 0.93184 18.0841 -77.8379 -40.3112
lowerback 35.9567 -14.2318 -1.29354
upperback 10.8462 -19.8191 -0.232581
thorax -4.87883 -10.3079 7.24349
lowerneck 5.01094 11.6958 -2.43127
upperneck 8.58335 15.3257 -3.37506
head 1.98137 7.34483 -0.623833
rclavicle -3.95581e-014 -4.45278e-014
rhumerus -54.8031 16.6041 -79.3832
rradius 39.4522
rwrist 19.1365
rhand -30.2949 38.1929
rfingers 7.12502
rthumb -3.60226 8.24359
lclavicle -3.95581e-014 -4.45278e-014
lhumerus 26.553 3.22683 71.8481
lradius 103.295
lwrist 35.6853
lhand -15.4458 -13.1333
lfingers 7.12502
lthumb 10.7348 16.5724
rfemur -45.0729 -7.69646 22.1657
rtibia 91.3052
rfoot -2.4376 0.803911
rtoes -8.32674
lfemur 4.6176 -14.2164 -18.9365
ltibia 33.1405
lfoot -19.5287 4.30854
ltoes 5.65654
28
root -3.72927 17.3112 0.955829 19.1396 -77.7518 -42.1846
lowerback 37.2392 -14.486 -1.39487
upperback 11.0016 -20.233 -0.287087
thorax -4.95139 -10.5417 7.50943
lowerneck 5.20888 11.9129 -2.50943
upperneck 8.23353 15.5924 -3.43442
head 1.83697 7.48866 -0.654296
rclavicle -1.89839e-013 7.71285e-014
rhumerus -55.1581 15.88 -78.8749
rradius 38.1487
rwrist 20.5692
rhand -30.6895 37.8423
rfingers 7.12502
rthumb -3.98335 7.89983
lclavicle -1.89839e-013 7.71285e-014
lhumerus 28.0482 3.45476 71.5373
lradius 104.334
lwrist 36.5132
lhand -15.0778 -13.1684
lfingers 7.12502
lthumb 11.0897 16.5186
rfemur -47.2233 -8.22369 22.701
rtibia 93.6388
rfoot -2.66384 1.47051
rtoes -8.89578
lfemur 5.66148 -14.2646 -18.8239
ltibia 32.8131
lfoot -19.5221 4.37105
ltoes 5.77511
29
root -3.70881 17.308 0.978428 19.8686 -77.6897 -43.8021
lowerback 38.5114 -14.7068 -1.57309
upperback 11.2433 -20.6381 -0.397162
thorax -5.03603 -10.7722 7.78927
lowerneck 5.48153 12.1104 -2.54059
upperneck 7.81351 15.8316 -3.5653
head 1.66877 7.62238 -0.720536
rclavicle -1.20464e-013 9.93923e-014
rhumerus -55.6161 15.3577 -78.4704
rradius 36.891
rwrist 21.9546
rhand -31.1056 37.4532
rfingers 7.12502
rthumb -4.38508 7.51855
lclavicle -1.20464e-013 9.93923e-014
lhumerus 29.4354 3.65962 71.2172
lradius 105.348
lwrist 37.3733
lhand -14.7532 -13.2263
lfingers 7.12502
lthumb 11.4028 16.4436
rfemur -49.337 -8.78636 23.1926
rtibia 95.9202
rfoot -2.85287 2.08015
rtoes -9.38734
lfemur 6.77525 -14.3086 -18.7993
ltibia 32.5211
lfoot -19.5179 4.4501
ltoes 5.91394
30
root -3.69136 17.2979 0.998759 20.1042 -77.6432 -44.9855
lowerback 39.8179 -14.8747 -1.83792
upperback 11.4991 -21.0197 -0.535474
thorax -5.08831 -10.9963 8.06887
lowerneck 5.78197 12.2721 -2.46382
upperneck 7.39852 16.0294 -3.78515
head 1.51575 7.73742 -0.830234
rclavicle -6.89783e-014 7.71285e-014
rhumerus -56.1109 14.7915 -78.0091
rradius 35.6337
rwrist 23.5025
rhand -31.5395 37.0272
rfingers 7.12502
rthumb -4.80408 7.10165
lclavicle -6.89783e-014 7.71285e-014
lhumerus 30.8131 3.77678 70.9545
lradius 106.286
lwrist 38.2164
lhand -14.3904 -13.3103
lfingers 7.12502
lthumb 11.7526 16.34
rfemur -51.4376 -9.43087 23.6093
rtibia 98.1712
rfoot -2.95637 2.70694
rtoes -9.51822
lfemur 7.96669 -14.3465 -18.8826
ltibia 32.2333
lfoot -19.5413 4.49403
ltoes 6.0326
31
root -3.67639 17.2862 1.01694 20.1124 -77.6173 -45.9822
lowerback 41.1522 -15.0346 -2.10485
upperback 11.7529 -21.403 -0.707589
thorax -5.14459 -11.2204 8.31844
lowerneck 6.01519 12.4384 -2.53093
upperneck 6.99217 16.2259 -3.90918
head 1.3572 7.84911 -0.887913
rclavicle -3.81667e-014 -2.38542e-015
rhumerus -56.5956 14.1592 -77.4593
rradius 34.381
rwrist 25.1743
rhand -31.8815 36.7203
rfingers 7.12502
rthumb -5.13428 6.80255
lclavicle -3.81667e-014 -2.38542e-015
lhumerus 32.1508 3.84816 70.7091
lradius 107.164
lwrist 39.0088
lhand -14.0802 -13.35
lfingers 7.12502
lthumb 12.0518 16.283
rfemur -53.5271 -10.0971 24.0088
rtibia 100.356
rfoot -2.82596 3.34052
rtoes -9.08731
lfemur 9.2263 -14.3379 -19.0036
ltibia 31.9107
lfoot -19.5683 4.50627
ltoes 6.07715
32
root -3.66252 17.2754 1.03352 20.0635 -77.5901 -46.9437
lowerback 42.4906 -15.1862 -2.34164
upperback 12.0333 -21.7774 -0.915166
thorax -5.17648 -11.4427 8.50937
lowerneck 6.19502 12.601 -2.61352
upperneck 6.58372 16.4188 -3.98856
head 1.20211 7.95987 -0.927811
rclavicle 0 -3.49861e-014
rhumerus -57.0801 13.4518 -76.8871
rradius 33.1641
rwrist 26.8032
rhand -32.1639 36.6218
rfingers 7.12502
rthumb -5.40697 6.71074
lclavicle 0 -3.49861e-014
lhumerus 33.5645 3.86164 70.4296
lradius 107.937
lwrist 39.8214
lhand -13.8135 -13.4148
lfingers 7.12502
lthumb 12.3089 16.2029
rfemur -55.596 -10.7449 24.4342
rtibia 102.432
rfoot -2.51701 3.94542
rtoes -8.30522
lfemur 10.5576 -14.2825 -19.1055
ltibia 31.4967
lfoot -19.5454 4.46331
ltoes 6.07546
